<svg xmlns="http://www.w3.org/2000/svg" width="24" height="24" viewBox="0 0 24 24">
  <g id="Grupo_21" data-name="Grupo 21" transform="translate(-842 -4368)">
    <g id="facebook-logo" transform="translate(826.923 4370)">
      <path id="Caminho_49" data-name="Caminho 49" d="M32.483,0,29.889,0a4.555,4.555,0,0,0-4.8,4.922V7.191H22.485a.408.408,0,0,0-.408.408v3.288a.408.408,0,0,0,.408.408h2.608v8.3A.408.408,0,0,0,25.5,20h3.4a.408.408,0,0,0,.408-.408V11.3h3.049a.408.408,0,0,0,.408-.408V7.6a.408.408,0,0,0-.408-.408H29.31V5.268c0-.925.22-1.394,1.425-1.394h1.747a.408.408,0,0,0,.408-.408V.412A.408.408,0,0,0,32.483,0Z" fill="#fff"/>
    </g>
    <rect id="Retângulo_37" data-name="Retângulo 37" width="24" height="24" transform="translate(842 4368)" fill="none"/>
  </g>
</svg>
