<svg xmlns="http://www.w3.org/2000/svg" width="24" height="24" viewBox="0 0 24 24">
  <g id="box-instagram" transform="translate(-842 -4368)">
    <rect id="Retângulo_37" data-name="Retângulo 37" width="24" height="24" transform="translate(842 4368)" fill="none"/>
    <g id="social-media" transform="translate(844 4370)">
      <path id="Caminho_67" data-name="Caminho 67" d="M14.481,0H5.519A5.526,5.526,0,0,0,0,5.519v8.961A5.525,5.525,0,0,0,5.519,20h8.961A5.526,5.526,0,0,0,20,14.481V5.519A5.525,5.525,0,0,0,14.481,0Zm3.745,14.481a3.749,3.749,0,0,1-3.745,3.745H5.519a3.749,3.749,0,0,1-3.745-3.745V5.519A3.749,3.749,0,0,1,5.519,1.774h8.961a3.749,3.749,0,0,1,3.745,3.745v8.961Z" fill="#fff"/>
      <path id="Caminho_68" data-name="Caminho 68" d="M46.121,40.97a5.153,5.153,0,1,0,5.153,5.153A5.159,5.159,0,0,0,46.121,40.97Zm0,8.532A3.379,3.379,0,1,1,49.5,46.123,3.383,3.383,0,0,1,46.121,49.5Z" transform="translate(-36.121 -36.123)" fill="#fff"/>
      <path id="Caminho_69" data-name="Caminho 69" d="M120.222,28.251a1.3,1.3,0,1,0,.92.381A1.306,1.306,0,0,0,120.222,28.251Z" transform="translate(-104.853 -24.909)" fill="#fff"/>
    </g>
  </g>
</svg>
